<svg width="186" height="42" viewBox="0 0 186 42" fill="none" xmlns="http://www.w3.org/2000/svg">
<rect x="2" y="2" width="182" height="38" fill="#FFCC00"/>
<rect x="2" y="2" width="182" height="38" stroke="black" stroke-width="4"/>
<path d="M24 11C29.523 11 34 15.477 34 21C34 26.523 29.523 31 24 31C22.3822 31.0021 20.7883 30.6102 19.356 29.858L15.066 30.975C14.9227 31.0123 14.7721 31.0116 14.6291 30.9728C14.4861 30.934 14.3558 30.8585 14.251 30.7538C14.1462 30.6491 14.0706 30.5188 14.0317 30.3759C13.9927 30.233 13.9918 30.0824 14.029 29.939L15.145 25.65C14.3908 24.2162 13.9978 22.6201 14 21C14 15.477 18.477 11 24 11ZM25.252 22H20.75L20.648 22.007C20.4685 22.0317 20.304 22.1206 20.1849 22.2571C20.0658 22.3937 20.0002 22.5688 20.0002 22.75C20.0002 22.9312 20.0658 23.1063 20.1849 23.2429C20.304 23.3794 20.4685 23.4683 20.648 23.493L20.75 23.5H25.252L25.353 23.493C25.5325 23.4683 25.697 23.3794 25.8161 23.2429C25.9352 23.1063 26.0008 22.9312 26.0008 22.75C26.0008 22.5688 25.9352 22.3937 25.8161 22.2571C25.697 22.1206 25.5325 22.0317 25.353 22.007L25.252 22ZM27.25 18.5H20.75L20.648 18.507C20.4685 18.5317 20.304 18.6206 20.1849 18.7571C20.0658 18.8937 20.0002 19.0688 20.0002 19.25C20.0002 19.4312 20.0658 19.6063 20.1849 19.7429C20.304 19.8794 20.4685 19.9683 20.648 19.993L20.75 20H27.25L27.352 19.993C27.5315 19.9683 27.696 19.8794 27.8151 19.7429C27.9342 19.6063 27.9998 19.4312 27.9998 19.25C27.9998 19.0688 27.9342 18.8937 27.8151 18.7571C27.696 18.6206 27.5315 18.5317 27.352 18.507L27.25 18.5Z" fill="black"/>
<path d="M46.12 29.28C43.34 29.28 41.28 27.9 40.46 25.38C40.4 25.18 40.48 25.04 40.68 24.98L43.46 24.3C43.64 24.26 43.78 24.32 43.86 24.5C44.3 25.56 45.04 26 46.22 26C47.18 26 47.84 25.68 47.84 25C47.84 24.26 47.2 23.9 45.98 23.46L44.46 22.92C42.22 22.14 40.8 20.68 40.8 18.5C40.8 15.88 43.14 14.04 46.06 14.04C48.52 14.04 50.48 15.16 51.3 17.66C51.38 17.86 51.28 18.02 51.1 18.06L48.18 18.84C47.98 18.9 47.86 18.82 47.78 18.64C47.34 17.6 46.74 17.32 46 17.32C45.2 17.32 44.6 17.68 44.6 18.3C44.6 18.92 45.14 19.34 46.64 19.84L47.74 20.2C50.34 21.08 51.62 22.4 51.62 24.82C51.62 27.42 49.36 29.28 46.12 29.28ZM52.2983 29C52.0583 29 51.9583 28.84 52.0383 28.64L57.8183 14.56C57.8783 14.4 58.0183 14.32 58.1783 14.32H60.6983C60.8783 14.32 60.9983 14.4 61.0583 14.56L66.8383 28.64C66.9183 28.84 66.8183 29 66.5983 29H63.2383C63.0583 29 62.9383 28.92 62.8783 28.74L62.0783 26.48H56.7383L55.9383 28.74C55.8783 28.92 55.7583 29 55.5783 29H52.2983ZM57.7983 23.44H60.9983L59.3783 18.92L57.7983 23.44ZM70.6647 29C70.4647 29 70.3447 28.88 70.3447 28.68V23.62L65.1247 14.7C65.0047 14.48 65.1047 14.32 65.3447 14.32H68.9247C69.1047 14.32 69.2247 14.4 69.3047 14.54L72.2647 20.26L75.1847 14.54C75.2447 14.38 75.3647 14.32 75.5447 14.32H79.0647C79.3247 14.32 79.4247 14.48 79.3047 14.7L74.0847 23.56V28.68C74.0847 28.88 73.9447 29 73.7647 29H70.6647ZM81.3494 29C81.1494 29 81.0294 28.88 81.0294 28.68V14.64C81.0294 14.44 81.1494 14.32 81.3494 14.32H84.4494C84.6494 14.32 84.7694 14.44 84.7694 14.64V19.74H90.1894V14.64C90.1894 14.44 90.3094 14.32 90.5094 14.32H93.6094C93.7894 14.32 93.9294 14.44 93.9294 14.64V28.68C93.9294 28.88 93.7894 29 93.6094 29H90.5094C90.3094 29 90.1894 28.88 90.1894 28.68V23.26H84.7694V28.68C84.7694 28.88 84.6494 29 84.4494 29H81.3494ZM97.0916 29C96.8916 29 96.7716 28.88 96.7716 28.68V14.64C96.7716 14.44 96.8916 14.32 97.0916 14.32H106.752C106.932 14.32 107.072 14.44 107.072 14.64V17.22C107.072 17.42 106.932 17.54 106.752 17.54H100.472V19.94H106.012C106.212 19.94 106.332 20.06 106.332 20.26V22.74C106.332 22.94 106.212 23.06 106.012 23.06H100.472V25.78H106.992C107.172 25.78 107.312 25.9 107.312 26.1V28.68C107.312 28.88 107.172 29 106.992 29H97.0916ZM113.887 29C113.687 29 113.567 28.88 113.567 28.68V23.62L108.347 14.7C108.227 14.48 108.327 14.32 108.567 14.32H112.147C112.327 14.32 112.447 14.4 112.527 14.54L115.487 20.26L118.407 14.54C118.467 14.38 118.587 14.32 118.767 14.32H122.287C122.547 14.32 122.647 14.48 122.527 14.7L117.307 23.56V28.68C117.307 28.88 117.167 29 116.987 29H113.887ZM124.172 29C123.972 29 123.852 28.88 123.852 28.68V27.76C123.852 27.6 123.912 27.48 124.012 27.38L127.752 23.2C129.732 20.98 130.312 19.98 130.312 18.92C130.312 18.06 129.712 17.54 128.772 17.54C127.892 17.54 127.232 18.06 126.832 19.12C126.772 19.32 126.632 19.38 126.452 19.34L123.772 18.6C123.572 18.56 123.492 18.42 123.552 18.22C124.292 15.64 126.312 14.04 129.012 14.04C132.032 14.04 134.092 15.84 134.092 18.5C134.092 20.58 133.232 22.16 130.192 25L129.652 25.5H134.152C134.352 25.5 134.472 25.62 134.472 25.8V28.68C134.472 28.88 134.352 29 134.152 29H124.172ZM138.292 29.2C137.112 29.2 136.192 28.38 136.192 27.2C136.192 26.02 137.112 25.2 138.292 25.2C139.472 25.2 140.372 26.02 140.372 27.2C140.372 28.38 139.472 29.2 138.292 29.2ZM142.99 29C142.79 29 142.67 28.88 142.67 28.68V14.64C142.67 14.44 142.79 14.32 142.99 14.32H146.23C146.39 14.32 146.51 14.38 146.59 14.54L151.01 21.9L155.31 14.54C155.39 14.4 155.51 14.32 155.67 14.32H158.85C159.05 14.32 159.17 14.44 159.17 14.64V28.68C159.17 28.88 159.05 29 158.85 29H155.91C155.71 29 155.59 28.88 155.59 28.68V20.34L152.21 25.98C152.13 26.14 152.01 26.2 151.85 26.2H149.99C149.83 26.2 149.71 26.14 149.63 25.98L146.25 20.48V28.68C146.25 28.88 146.13 29 145.93 29H142.99ZM162.326 29C162.126 29 162.006 28.88 162.006 28.68V14.64C162.006 14.44 162.126 14.32 162.326 14.32H171.986C172.166 14.32 172.306 14.44 172.306 14.64V17.22C172.306 17.42 172.166 17.54 171.986 17.54H165.706V19.94H171.246C171.446 19.94 171.566 20.06 171.566 20.26V22.74C171.566 22.94 171.446 23.06 171.246 23.06H165.706V25.78H172.226C172.406 25.78 172.546 25.9 172.546 26.1V28.68C172.546 28.88 172.406 29 172.226 29H162.326Z" fill="black"/>
</svg>
